mtllib model_0.mtl
o model_0
v -0.2779822051525116 -0.545678973197937 -0.4472149908542633 
v 0.5383322238922119 -0.3559038043022156 -0.4472149908542633 
v 0.27859580516815186 -0.5267014503479004 0.44955724477767944 
v 0.7238581776618958 0.5265508890151978 -0.4472149908542633 
v 0.27859580516815186 0.6499047875404358 0.44955724477767944 
v -0.2779822051525116 0.6593935489654541 -0.4472149908542633 
v 0.6372793912887573 0.3937082290649414 0.44955724477767944 
v 0.27859580516815186 0.6499047875404358 0.44955724477767944 
v 0.11780659854412079 0.27035436034202576 0.7156324982643127 
v 0.27859580516815186 -0.5267014503479004 0.44955724477767944 
v 0.10543820261955261 -0.2040836364030838 0.7353417873382568 
v 0.6620162129402161 -0.08072976022958755 0.44955724477767944 
v -0.7108762264251709 0.004669080022722483 -0.4472149908542633 
v -0.7974550127983093 -0.1281735599040985 0.06522627919912338 
v -0.7974550127983093 0.20393304526805878 0.06522627919912338 
v 0.27859580516815186 0.6499047875404358 0.44955724477767944 
v 0.7238581776618958 0.5265508890151978 -0.4472149908542633 
v 0.6372793912887573 0.3937082290649414 0.44955724477767944 
v 0.7609633803367615 0.19444428384304047 0.02580771967768669 
v 0.27859580516815186 -0.5267014503479004 0.44955724477767944 
v -0.2779822051525116 -0.545678973197937 -0.4472149908542633 
v -0.35219261050224304 -0.33692628145217896 0.44955724477767944 
v -0.574823796749115 -0.441302627325058 0.14406339824199677 
v -0.38929781317710876 -0.15663984417915344 0.6565046906471252 
v -0.38929781317710876 0.19444428384304047 0.6565046906471252 
v -0.19140340387821198 -0.1186847984790802 0.7944696545600891 
v -0.20377179980278015 0.09955667704343796 0.7846149802207947 
v -0.562455415725708 0.5265508890151978 0.13420875370502472 
v -0.2779822051525116 0.6593935489654541 -0.4472149908542633 
v -0.35219261050224304 0.4696183204650879 0.44955724477767944 
v 0.27859580516815186 0.6499047875404358 0.44955724477767944 
v 0.7238581776618958 0.5265508890151978 -0.4472149908542633 
v 0.5383322238922119 -0.3559038043022156 -0.4472149908542633 
v 0.7609633803367615 0.19444428384304047 0.02580771967768669 
v 0.7733318209648132 -0.05226347967982292 0.06522627919912338 
v -0.2779822051525116 -0.545678973197937 -0.4472149908542633 
v -0.7108762264251709 0.004669080022722483 -0.4472149908542633 
v -0.574823796749115 -0.441302627325058 0.14406339824199677 
v -0.7974550127983093 -0.1281735599040985 0.06522627919912338 
v -0.7108762264251709 0.004669080022722483 -0.4472149908542633 
v -0.2779822051525116 0.6593935489654541 -0.4472149908542633 
v -0.7974550127983093 0.20393304526805878 0.06522627919912338 
v -0.562455415725708 0.5265508890151978 0.13420875370502472 
v 0.11780659854412079 0.27035436034202576 0.7156324982643127 
v 0.6372793912887573 0.3937082290649414 0.44955724477767944 
v 0.06833299994468689 0.023646600544452667 0.8043242692947388 
v 0.7485949993133545 0.17546676099300385 0.44955724477767944 
v 0.06833299994468689 0.023646600544452667 0.8043242692947388 
v 0.7485949993133545 0.17546676099300385 0.44955724477767944 
v 0.10543820261955261 -0.2040836364030838 0.7353417873382568 
v 0.6620162129402161 -0.08072976022958755 0.44955724477767944 
v 0.7733318209648132 -0.05226347967982292 0.06522627919912338 
v 0.5383322238922119 -0.3559038043022156 -0.4472149908542633 
v 0.6620162129402161 -0.08072976022958755 0.44955724477767944 
v 0.27859580516815186 -0.5267014503479004 0.44955724477767944 
v -0.38929781317710876 0.19444428384304047 0.6565046906471252 
v -0.38929781317710876 -0.15663984417915344 0.6565046906471252 
v -0.6490342020988464 0.26086559891700745 0.4002840518951416 
v -0.6490342020988464 -0.17561736702919006 0.4002840518951416 
v -0.6490342020988464 0.26086559891700745 0.4002840518951416 
v -0.6490342020988464 -0.17561736702919006 0.4002840518951416 
v -0.7974550127983093 0.20393304526805878 0.06522627919912338 
v -0.7974550127983093 -0.1281735599040985 0.06522627919912338 
v -0.7108762264251709 0.004669080022722483 -0.4472149908542633 
v -0.2779822051525116 -0.545678973197937 -0.4472149908542633 
v -0.2779822051525116 0.6593935489654541 -0.4472149908542633 
v 0.7238581776618958 0.5265508890151978 -0.4472149908542633 
v 0.5383322238922119 -0.3559038043022156 -0.4472149908542633 
v 0.27859580516815186 -0.5267014503479004 0.44955724477767944 
v -0.35219261050224304 -0.33692628145217896 0.44955724477767944 
v 0.10543820261955261 -0.2040836364030838 0.7353417873382568 
v -0.38929781317710876 -0.15663984417915344 0.6565046906471252 
v -0.19140340387821198 -0.1186847984790802 0.7944696545600891 
v -0.38929781317710876 0.19444428384304047 0.6565046906471252 
v -0.20377179980278015 0.09955667704343796 0.7846149802207947 
v -0.35219261050224304 0.4696183204650879 0.44955724477767944 
v 0.27859580516815186 0.6499047875404358 0.44955724477767944 
v 0.11780659854412079 0.27035436034202576 0.7156324982643127 
v 0.6620162129402161 -0.08072976022958755 0.44955724477767944 
v 0.7733318209648132 -0.05226347967982292 0.06522627919912338 
v 0.7485949993133545 0.17546676099300385 0.44955724477767944 
v 0.7609633803367615 0.19444428384304047 0.02580771967768669 
v 0.6372793912887573 0.3937082290649414 0.44955724477767944 
v 0.10543820261955261 -0.2040836364030838 0.7353417873382568 
v -0.19140340387821198 -0.1186847984790802 0.7944696545600891 
v 0.06833299994468689 0.023646600544452667 0.8043242692947388 
v 0.11780659854412079 0.27035436034202576 0.7156324982643127 
v -0.20377179980278015 0.09955667704343796 0.7846149802207947 
v -0.38929781317710876 -0.15663984417915344 0.6565046906471252 
v -0.35219261050224304 -0.33692628145217896 0.44955724477767944 
v -0.6490342020988464 -0.17561736702919006 0.4002840518951416 
v -0.7974550127983093 -0.1281735599040985 0.06522627919912338 
v -0.574823796749115 -0.441302627325058 0.14406339824199677 
v -0.38929781317710876 0.19444428384304047 0.6565046906471252 
v -0.6490342020988464 0.26086559891700745 0.4002840518951416 
v -0.35219261050224304 0.4696183204650879 0.44955724477767944 
v -0.562455415725708 0.5265508890151978 0.13420875370502472 
v -0.7974550127983093 0.20393304526805878 0.06522627919912338 
vn 0.22827260196208954 -0.9661899209022522 -0.11986933648586273 
vn 0.22827260196208954 -0.9661899209022522 -0.11986933648586273 
vn 0.22827260196208954 -0.9661899209022522 -0.11986933648586273 
vn 0.1317036747932434 0.9883413910865784 -0.0763898640871048 
vn 0.1317036747932434 0.9883413910865784 -0.0763898640871048 
vn 0.1317036747932434 0.9883413910865784 -0.0763898640871048 
vn 0.32939204573631287 0.4527284801006317 0.8285757899284363 
vn 0.32939204573631287 0.4527284801006317 0.8285757899284363 
vn 0.32939204573631287 0.4527284801006317 0.8285757899284363 
vn 0.4949917197227478 -0.4164411127567291 0.762600839138031 
vn 0.4949917197227478 -0.4164411127567291 0.762600839138031 
vn 0.4949917197227478 -0.4164411127567291 0.762600839138031 
vn -0.9865990281105042 0.003775282995775342 -0.16312000155448914 
vn -0.9865990281105042 0.003775282995775342 -0.16312000155448914 
vn -0.9865990281105042 0.003775282995775342 -0.16312000155448914 
vn 0.7514455318450928 0.6381982564926147 0.16742929816246033 
vn 0.7514455318450928 0.6381982564926147 0.16742929816246033 
vn 0.7514455318450928 0.6381982564926147 0.16742929816246033 
vn 0.7514455318450928 0.6381982564926147 0.16742929816246033 
vn -0.17445987462997437 -0.9628620743751526 0.2060592919588089 
vn -0.17445987462997437 -0.9628620743751526 0.2060592919588089 
vn -0.17445987462997437 -0.9628620743751526 0.2060592919588089 
vn -0.17445987462997437 -0.9628620743751526 0.2060592919588089 
vn -0.5416429042816162 -1.1202426790021813e-13 0.8406086564064026 
vn -0.5416429042816162 -1.1202426790021813e-13 0.8406086564064026 
vn -0.5416429042816162 -1.1202426790021813e-13 0.8406086564064026 
vn -0.5416429042816162 -1.1202426790021813e-13 0.8406086564064026 
vn -0.20798248052597046 0.9597135782241821 0.18892620503902435 
vn -0.20798248052597046 0.9597135782241821 0.18892620503902435 
vn -0.20798248052597046 0.9597135782241821 0.18892620503902435 
vn -0.20798248052597046 0.9597135782241821 0.18892620503902435 
vn 0.9462103247642517 -0.165351003408432 -0.2781098484992981 
vn 0.9462103247642517 -0.165351003408432 -0.2781098484992981 
vn 0.9462103247642517 -0.165351003408432 -0.2781098484992981 
vn 0.9462103247642517 -0.165351003408432 -0.2781098484992981 
vn -0.7496526837348938 -0.6043838858604431 -0.26970529556274414 
vn -0.7496526837348938 -0.6043838858604431 -0.26970529556274414 
vn -0.7496526837348938 -0.6043838858604431 -0.26970529556274414 
vn -0.7496526837348938 -0.6043838858604431 -0.26970529556274414 
vn -0.778845489025116 0.5490659475326538 -0.30319350957870483 
vn -0.778845489025116 0.5490659475326538 -0.30319350957870483 
vn -0.778845489025116 0.5490659475326538 -0.30319350957870483 
vn -0.778845489025116 0.5490659475326538 -0.30319350957870483 
vn 0.41253942251205444 0.2171715795993805 0.8846737742424011 
vn 0.41253942251205444 0.2171715795993805 0.8846737742424011 
vn 0.41253942251205444 0.2171715795993805 0.8846737742424011 
vn 0.41253942251205444 0.2171715795993805 0.8846737742424011 
vn 0.48823973536491394 -0.17725911736488342 0.8545181155204773 
vn 0.48823973536491394 -0.17725911736488342 0.8545181155204773 
vn 0.48823973536491394 -0.17725911736488342 0.8545181155204773 
vn 0.48823973536491394 -0.17725911736488342 0.8545181155204773 
vn 0.7256877422332764 -0.67898029088974 0.1111890971660614 
vn 0.7256877422332764 -0.67898029088974 0.1111890971660614 
vn 0.7256877422332764 -0.67898029088974 0.1111890971660614 
vn 0.7256877422332764 -0.67898029088974 0.1111890971660614 
vn -0.7170764207839966 -1.4830797451671068e-13 0.6969945430755615 
vn -0.7170764207839966 -1.4830797451671068e-13 0.6969945430755615 
vn -0.7170764207839966 -1.4830797451671068e-13 0.6969945430755615 
vn -0.7170764207839966 -1.4830797451671068e-13 0.6969945430755615 
vn -0.9141881465911865 0.0037740119732916355 0.405272513628006 
vn -0.9141881465911865 0.0037740119732916355 0.405272513628006 
vn -0.9141881465911865 0.0037740119732916355 0.405272513628006 
vn -0.9141881465911865 0.0037740119732916355 0.405272513628006 
vn 2.0682311115474694e-13 4.2775797696334704e-26 -1 
vn 2.0682311115474694e-13 4.2775797696334704e-26 -1 
vn 2.0682311115474694e-13 4.2775797696334704e-26 -1 
vn 2.0682311115474694e-13 4.2775797696334704e-26 -1 
vn 2.0682311115474694e-13 4.2775797696334704e-26 -1 
vn -0.18653637170791626 -0.7495409846305847 0.6351318359375 
vn -0.18653637170791626 -0.7495409846305847 0.6351318359375 
vn -0.18653637170791626 -0.7495409846305847 0.6351318359375 
vn -0.18653637170791626 -0.7495409846305847 0.6351318359375 
vn -0.18653637170791626 -0.7495409846305847 0.6351318359375 
vn -0.18766352534294128 0.619049608707428 0.762600839138031 
vn -0.18766352534294128 0.619049608707428 0.762600839138031 
vn -0.18766352534294128 0.619049608707428 0.762600839138031 
vn -0.18766352534294128 0.619049608707428 0.762600839138031 
vn -0.18766352534294128 0.619049608707428 0.762600839138031 
vn 0.9908500909805298 0.05281004682183266 0.1242060661315918 
vn 0.9908500909805298 0.05281004682183266 0.1242060661315918 
vn 0.9908500909805298 0.05281004682183266 0.1242060661315918 
vn 0.9908500909805298 0.05281004682183266 0.1242060661315918 
vn 0.9908500909805298 0.05281004682183266 0.1242060661315918 
vn 0.023692212998867035 0.031373560428619385 0.9992268681526184 
vn 0.023692212998867035 0.031373560428619385 0.9992268681526184 
vn 0.023692212998867035 0.031373560428619385 0.9992268681526184 
vn 0.023692212998867035 0.031373560428619385 0.9992268681526184 
vn 0.023692212998867035 0.031373560428619385 0.9992268681526184 
vn -0.6108084917068481 -0.6441603899002075 0.46040233969688416 
vn -0.6108084917068481 -0.6441603899002075 0.46040233969688416 
vn -0.6108084917068481 -0.6441603899002075 0.46040233969688416 
vn -0.6108084917068481 -0.6441603899002075 0.46040233969688416 
vn -0.6108084917068481 -0.6441603899002075 0.46040233969688416 
vn -0.6403211951255798 0.602958619594574 0.4758462607860565 
vn -0.6403211951255798 0.602958619594574 0.4758462607860565 
vn -0.6403211951255798 0.602958619594574 0.4758462607860565 
vn -0.6403211951255798 0.602958619594574 0.4758462607860565 
vn -0.6403211951255798 0.602958619594574 0.4758462607860565 
s on 
f 1//1 2//2 3//3 
f 2//2 3//3 3//3 
f 3//3 3//3 4//4 
f 3//3 4//4 4//4 
f 4//4 4//4 5//5 
f 4//4 6//6 5//5 
f 5//5 6//6 6//6 
f 6//6 7//7 6//6 
f 6//6 7//7 7//7 
f 7//7 8//8 7//7 
f 7//7 8//8 9//9 
f 8//8 9//9 9//9 
f 9//9 9//9 10//10 
f 9//9 10//10 10//10 
f 10//10 10//10 11//11 
f 10//10 12//12 11//11 
f 11//11 12//12 12//12 
f 12//12 13//13 12//12 
f 12//12 13//13 13//13 
f 13//13 14//14 13//13 
f 13//13 14//14 15//15 
f 14//14 15//15 15//15 
f 15//15 15//15 16//16 
f 15//15 16//16 16//16 
f 16//16 16//16 17//17 
f 16//16 18//18 17//17 
f 17//17 18//18 19//19 
f 18//18 19//19 19//19 
f 19//19 19//19 20//20 
f 19//19 20//20 20//20 
f 20//20 20//20 21//21 
f 20//20 22//22 21//21 
f 21//21 22//22 23//23 
f 22//22 23//23 23//23 
f 23//23 23//23 24//24 
f 23//23 24//24 24//24 
f 24//24 24//24 25//25 
f 24//24 26//26 25//25 
f 25//25 26//26 27//27 
f 26//26 27//27 27//27 
f 27//27 27//27 28//28 
f 27//27 28//28 28//28 
f 28//28 28//28 29//29 
f 28//28 30//30 29//29 
f 29//29 30//30 31//31 
f 30//30 31//31 31//31 
f 31//31 31//31 32//32 
f 31//31 32//32 32//32 
f 32//32 32//32 33//33 
f 32//32 34//34 33//33 
f 33//33 34//34 35//35 
f 34//34 35//35 35//35 
f 35//35 35//35 36//36 
f 35//35 36//36 36//36 
f 36//36 36//36 37//37 
f 36//36 38//38 37//37 
f 37//37 38//38 39//39 
f 38//38 39//39 39//39 
f 39//39 39//39 40//40 
f 39//39 40//40 40//40 
f 40//40 40//40 41//41 
f 40//40 42//42 41//41 
f 41//41 42//42 43//43 
f 42//42 43//43 43//43 
f 43//43 43//43 44//44 
f 43//43 44//44 44//44 
f 44//44 44//44 45//45 
f 44//44 46//46 45//45 
f 45//45 46//46 47//47 
f 46//46 47//47 47//47 
f 47//47 47//47 48//48 
f 47//47 48//48 48//48 
f 48//48 48//48 49//49 
f 48//48 50//50 49//49 
f 49//49 50//50 51//51 
f 50//50 51//51 51//51 
f 51//51 51//51 52//52 
f 51//51 52//52 52//52 
f 52//52 52//52 53//53 
f 52//52 54//54 53//53 
f 53//53 54//54 55//55 
f 54//54 55//55 55//55 
f 55//55 55//55 56//56 
f 55//55 56//56 56//56 
f 56//56 56//56 57//57 
f 56//56 58//58 57//57 
f 57//57 58//58 59//59 
f 58//58 59//59 59//59 
f 59//59 59//59 60//60 
f 59//59 60//60 60//60 
f 60//60 60//60 61//61 
f 60//60 62//62 61//61 
f 61//61 62//62 63//63 
f 62//62 63//63 63//63 
f 63//63 63//63 64//64 
f 63//63 64//64 64//64 
f 64//64 64//64 65//65 
f 64//64 66//66 65//65 
f 65//65 66//66 65//65 
f 66//66 67//67 65//65 
f 65//65 67//67 68//68 
f 67//67 68//68 68//68 
f 68//68 68//68 69//69 
f 68//68 69//69 69//69 
f 69//69 69//69 70//70 
f 69//69 71//71 70//70 
f 70//70 71//71 72//72 
f 71//71 73//73 72//72 
f 72//72 73//73 73//73 
f 73//73 74//74 73//73 
f 73//73 74//74 74//74 
f 74//74 75//75 74//74 
f 74//74 75//75 76//76 
f 75//75 75//75 76//76 
f 76//76 75//75 77//77 
f 75//75 78//78 77//77 
f 77//77 78//78 78//78 
f 78//78 79//79 78//78 
f 78//78 79//79 79//79 
f 79//79 80//80 79//79 
f 79//79 80//80 81//81 
f 80//80 82//82 81//81 
f 81//81 82//82 83//83 
f 82//82 83//83 83//83 
f 83//83 83//83 84//84 
f 83//83 84//84 84//84 
f 84//84 84//84 85//85 
f 84//84 86//86 85//85 
f 85//85 86//86 85//85 
f 86//86 87//87 85//85 
f 85//85 87//87 88//88 
f 87//87 88//88 88//88 
f 88//88 88//88 89//89 
f 88//88 89//89 89//89 
f 89//89 89//89 90//90 
f 89//89 91//91 90//90 
f 90//90 91//91 90//90 
f 91//91 92//92 90//90 
f 90//90 92//92 93//93 
f 92//92 93//93 93//93 
f 93//93 93//93 94//94 
f 93//93 94//94 94//94 
f 94//94 94//94 95//95 
f 94//94 96//96 95//95 
f 95//95 96//96 95//95 
f 96//96 97//97 95//95 
f 95//95 97//97 98//98 

