{"asset":{"version":"2.0","generator":"Blockbench 5.0.7 glTF exporter"},"scenes":[{"nodes":[8],"name":"blockbench_export"}],"scene":0,"nodes":[{"name":"mesh","mesh":0},{"translation":[0.3125,0.25,0],"name":"torus","mesh":1},{"translation":[-0.3125,0.25,0],"name":"torus","mesh":2},{"translation":[0,-0.03125,0.375],"name":"mesh","mesh":3},{"translation":[0,-0.125,0],"name":"BaseDrone","children":[0,1,2,3]},{"translation":[-0.3125,0.25,0],"name":"torus","mesh":4},{"translation":[0.3125,0.25,0],"name":"torus","mesh":5},{"translation":[0,-0.125,0],"name":"Rarity","children":[5,6]},{"name":"root","children":[4,7]}],"bufferViews":[{"buffer":0,"byteOffset":0,"byteLength":288,"target":34962,"byteStride":12},{"buffer":0,"byteOffset":288,"byteLength":288,"target":34962,"byteStride":12},{"buffer":0,"byteOffset":576,"byteLength":192,"target":34962,"byteStride":8},{"buffer":0,"byteOffset":768,"byteLength":72,"target":34963},{"buffer":0,"byteOffset":840,"byteLength":4608,"target":34962,"byteStride":12},{"buffer":0,"byteOffset":5448,"byteLength":4608,"target":34962,"byteStride":12},{"buffer":0,"byteOffset":10056,"byteLength":3072,"target":34962,"byteStride":8},{"buffer":0,"byteOffset":13128,"byteLength":1152,"target":34963},{"buffer":0,"byteOffset":14280,"byteLength":4608,"target":34962,"byteStride":12},{"buffer":0,"byteOffset":18888,"byteLength":4608,"target":34962,"byteStride":12},{"buffer":0,"byteOffset":23496,"byteLength":3072,"target":34962,"byteStride":8},{"buffer":0,"byteOffset":26568,"byteLength":1152,"target":34963},{"buffer":0,"byteOffset":27720,"byteLength":288,"target":34962,"byteStride":12},{"buffer":0,"byteOffset":28008,"byteLength":288,"target":34962,"byteStride":12},{"buffer":0,"byteOffset":28296,"byteLength":192,"target":34962,"byteStride":8},{"buffer":0,"byteOffset":28488,"byteLength":72,"target":34963},{"buffer":0,"byteOffset":28560,"byteLength":4608,"target":34962,"byteStride":12},{"buffer":0,"byteOffset":33168,"byteLength":4608,"target":34962,"byteStride":12},{"buffer":0,"byteOffset":37776,"byteLength":3072,"target":34962,"byteStride":8},{"buffer":0,"byteOffset":40848,"byteLength":1152,"target":34963},{"buffer":0,"byteOffset":42000,"byteLength":4608,"target":34962,"byteStride":12},{"buffer":0,"byteOffset":46608,"byteLength":4608,"target":34962,"byteStride":12},{"buffer":0,"byteOffset":51216,"byteLength":3072,"target":34962,"byteStride":8},{"buffer":0,"byteOffset":54288,"byteLength":1152,"target":34963}],"buffers":[{"byteLength":55440,"uri":"data:application/octet-stream;base64,"}],"accessors":[{"bufferView":0,"componentType":5126,"count":24,"max":[0.125,0.3125,0.375],"min":[-0.125,0.1875,-0.375],"type":"VEC3"},{"bufferView":1,"componentType":5126,"count":24,"max":[0.9965457320213318,1,1],"min":[-0.9965457320213318,-1,-1],"type":"VEC3"},{"bufferView":2,"componentType":5126,"count":24,"max":[0.515625,0.328125],"min":[0,0],"type":"VEC2"},{"bufferView":3,"componentType":5123,"count":36,"max":[23],"min":[0],"type":"SCALAR"},{"bufferView":4,"componentType":5126,"count":384,"max":[0.25,0.06690952181816101,0.25],"min":[-0.25,-0.06690952181816101,-0.25],"type":"VEC3"},{"bufferView":5,"componentType":5126,"count":384,"max":[0.955283522605896,0.8746243119239807,0.955283522605896],"min":[-0.955283522605896,-0.8746243119239807,-0.955283522605896],"type":"VEC3"},{"bufferView":6,"componentType":5126,"count":384,"max":[0.6500011682510376,0.59375],"min":[0.006248818710446358,0.013901114463806152],"type":"VEC2"},{"bufferView":7,"componentType":5123,"count":576,"max":[383],"min":[0],"type":"SCALAR"},{"bufferView":8,"componentType":5126,"count":384,"max":[0.25,0.06690952181816101,0.25],"min":[-0.25,-0.06690952181816101,-0.25],"type":"VEC3"},{"bufferView":9,"componentType":5126,"count":384,"max":[0.955283522605896,0.8746243119239807,0.955283522605896],"min":[-0.955283522605896,-0.8746243119239807,-0.955283522605896],"type":"VEC3"},{"bufferView":10,"componentType":5126,"count":384,"max":[0.6670101284980774,0.609375],"min":[0.0012832055799663067,0.00804281234741211],"type":"VEC2"},{"bufferView":11,"componentType":5123,"count":576,"max":[383],"min":[0],"type":"SCALAR"},{"bufferView":12,"componentType":5126,"count":24,"max":[0.1875,0.375,0.125],"min":[-0.1875,0.1875,-0.0625],"type":"VEC3"},{"bufferView":13,"componentType":5126,"count":24,"max":[1,1,0.9486833214759827],"min":[-1,-1,-0.9486833214759827],"type":"VEC3"},{"bufferView":14,"componentType":5126,"count":24,"max":[0.53125,0.5280426740646362],"min":[0,0.34375],"type":"VEC2"},{"bufferView":15,"componentType":5123,"count":36,"max":[23],"min":[0],"type":"SCALAR"},{"bufferView":16,"componentType":5126,"count":384,"max":[0.125,0.06690952181816101,0.125],"min":[-0.125,-0.06690952181816101,-0.125],"type":"VEC3"},{"bufferView":17,"componentType":5126,"count":384,"max":[0.9882346391677856,0.6698029041290283,0.9882346391677856],"min":[-0.9882346391677856,-0.6698029041290283,-0.9882346391677856],"type":"VEC3"},{"bufferView":18,"componentType":5126,"count":384,"max":[0.3705437481403351,0.4194468855857849],"min":[0,0.03125],"type":"VEC2"},{"bufferView":19,"componentType":5123,"count":576,"max":[383],"min":[0],"type":"SCALAR"},{"bufferView":20,"componentType":5126,"count":384,"max":[0.125,0.06690952181816101,0.125],"min":[-0.125,-0.06690952181816101,-0.125],"type":"VEC3"},{"bufferView":21,"componentType":5126,"count":384,"max":[0.9882346391677856,0.6698029041290283,0.9882346391677856],"min":[-0.9882346391677856,-0.6698029041290283,-0.9882346391677856],"type":"VEC3"},{"bufferView":22,"componentType":5126,"count":384,"max":[0.3705437481403351,0.4194468855857849],"min":[0,0],"type":"VEC2"},{"bufferView":23,"componentType":5123,"count":576,"max":[383],"min":[0],"type":"SCALAR"}],"materials":[{"pbrMetallicRoughness":{"metallicFactor":0,"roughnessFactor":1,"baseColorTexture":{"index":0}},"alphaMode":"MASK","alphaCutoff":0.05,"doubleSided":true},{"pbrMetallicRoughness":{"metallicFactor":0,"roughnessFactor":1,"baseColorTexture":{"index":1}},"alphaMode":"MASK","alphaCutoff":0.05,"doubleSided":true}],"textures":[{"sampler":0,"source":0,"name":"Drone"},{"sampler":1,"source":1,"name":"DroneRarity"}],"samplers":[{"magFilter":9728,"minFilter":9728,"wrapS":33071,"wrapT":33071},{"magFilter":9728,"minFilter":9728,"wrapS":33071,"wrapT":33071}],"images":[{"mimeType":"image/png","uri":"data:image/png;base64,"},{"mimeType":"image/png","uri":"data:image/png;base64,"}],"meshes":[{"primitives":[{"mode":4,"attributes":{"POSITION":0,"NORMAL":1,"TEXCOORD_0":2},"indices":3,"material":0}]},{"primitives":[{"mode":4,"attributes":{"POSITION":4,"NORMAL":5,"TEXCOORD_0":6},"indices":7,"material":0}]},{"primitives":[{"mode":4,"attributes":{"POSITION":8,"NORMAL":9,"TEXCOORD_0":10},"indices":11,"material":0}]},{"primitives":[{"mode":4,"attributes":{"POSITION":12,"NORMAL":13,"TEXCOORD_0":14},"indices":15,"material":0}]},{"primitives":[{"mode":4,"attributes":{"POSITION":16,"NORMAL":17,"TEXCOORD_0":18},"indices":19,"material":1}]},{"primitives":[{"mode":4,"attributes":{"POSITION":20,"NORMAL":21,"TEXCOORD_0":22},"indices":23,"material":1}]}]}